# xmcd CD database file
#
# Track frame offsets:
#	150
#	20190
#	34600
#	53218
#	70985
#	89955
#	106348
#	124560
#	139125
#	157779
#	176713
#	192003
#	210790
#	227720
#	242663
#	260900
#
# Disc length: 3700 seconds
#
# Revision: 1
# Processed by: cddbd v1.5.2PL0 Copyright (c) Steve Scherf et al.
# Submitted via: CDex 1.51
#
DISCID=df0e7210
DTITLE=BETH HART - Leave The Light On(Bonus CD)
DYEAR=2005
DGENRE=Blues Rock
TTITLE0=Hiding Under Water
TTITLE1=Say Something
TTITLE2=Crazy Kind Of Day
TTITLE3=I Don't Want To Be(Duet With Barry Hay)
TTITLE4=Learning To Live
TTITLE5=Lifts You Up
TTITLE6=Leave The Light On
TTITLE7=Bottle Of Jesus
TTITLE8=World Without You
TTITLE9=Lay Your Hands On Me
TTITLE10=Broken and Ugly
TTITLE11=Lifetime
TTITLE12=If God Only Knew
TTITLE13=Monkey Back
TTITLE14=Sky Full Of Clover
TTITLE15=I'll Stay With You
EXTD=YEAR: 2005
EXTT0=
EXTT1=
EXTT2=
EXTT3=
EXTT4=
EXTT5=
EXTT6=
EXTT7=
EXTT8=
EXTT9=
EXTT10=
EXTT11=
EXTT12=
EXTT13=
EXTT14=
EXTT15=
PLAYORDER=
